<?xml version="1.0" standalone="no"?>
<!DOCTYPE svg PUBLIC "-//W3C//DTD SVG 20010904//EN"
 "http://www.w3.org/TR/2001/REC-SVG-20010904/DTD/svg10.dtd">
<svg version="1.0" xmlns="http://www.w3.org/2000/svg"
 width="700.000000pt" height="700.000000pt" viewBox="0 0 700.000000 700.000000"
 preserveAspectRatio="xMidYMid meet">
<metadata>
Created by potrace 1.14, written by Peter Selinger 2001-2017
</metadata>
<g transform="translate(0.000000,700.000000) scale(0.100000,-0.100000)"
fill="#000000" stroke="none">
<path d="M3309 6956 c-2 -2 -47 -6 -99 -10 -52 -3 -106 -8 -120 -10 -30 -5
-117 -18 -145 -22 -64 -8 -166 -29 -285 -59 -1050 -263 -1914 -1003 -2345
-2005 -68 -157 -169 -476 -191 -600 -3 -14 -7 -33 -10 -42 -14 -46 -52 -306
-62 -415 -14 -174 -8 -555 13 -713 2 -14 6 -47 9 -73 3 -27 8 -52 10 -55 2 -4
7 -31 10 -61 4 -29 8 -56 10 -60 2 -3 7 -23 10 -44 22 -139 119 -450 198 -637
291 -687 795 -1262 1441 -1643 320 -189 793 -367 1097 -412 24 -4 47 -8 50
-10 3 -2 26 -6 50 -9 25 -4 61 -9 80 -12 155 -22 267 -29 480 -28 277 0 434
16 705 69 124 24 430 112 500 144 11 5 47 19 80 31 159 60 446 210 615 323 69
46 258 184 270 197 3 3 34 30 70 60 36 30 96 84 133 119 37 36 71 68 75 71 15
10 198 216 232 260 19 25 37 47 40 50 30 26 217 302 279 410 47 82 174 344
209 430 41 100 123 351 120 362 -2 6 -14 -23 -27 -64 -59 -189 -173 -446 -270
-611 -25 -43 -54 -92 -65 -110 -91 -157 -278 -391 -455 -568 -370 -371 -802
-639 -1291 -799 -101 -33 -270 -78 -350 -94 -14 -2 -49 -9 -79 -15 -29 -6 -81
-14 -115 -17 -33 -3 -64 -8 -67 -9 -17 -11 -212 -20 -409 -20 -220 1 -319 6
-430 25 -30 5 -68 11 -85 13 -31 5 -135 24 -170 31 -53 12 -262 68 -280 75
-11 5 -63 23 -115 41 -220 76 -457 193 -679 337 -607 395 -1063 980 -1301
1668 -63 184 -124 442 -145 620 -4 28 -8 61 -11 75 -15 94 -21 415 -10 582 6
90 29 281 41 338 3 14 9 48 15 75 95 491 325 985 645 1385 498 623 1203 1039
1993 1175 193 33 283 40 537 40 290 0 382 -8 615 -52 514 -97 975 -307 1395
-634 182 -142 371 -327 505 -494 35 -44 67 -82 71 -85 13 -11 180 -261 228
-343 127 -217 270 -552 305 -714 4 -18 11 -35 16 -38 18 -11 -72 265 -146 448
-111 274 -321 628 -504 847 -25 30 -54 65 -65 79 -121 150 -360 373 -560 523
-208 157 -511 332 -707 409 -29 11 -66 27 -83 34 -104 46 -394 136 -520 161
-225 44 -250 48 -360 60 -27 3 -66 7 -85 10 -41 6 -506 15 -511 10z"/>
<path d="M2354 5282 c-42 -27 -54 -67 -54 -177 0 -74 3 -95 17 -106 13 -11 90
-14 402 -15 612 -1 1043 -18 1256 -50 169 -25 336 -106 449 -218 162 -160 234
-345 282 -726 14 -104 5 -1152 -10 -1260 -15 -111 -55 -276 -84 -352 -75 -190
-221 -340 -405 -412 -69 -28 -199 -58 -297 -71 -30 -3 -66 -8 -80 -10 -80 -12
-267 -18 -683 -19 -356 -2 -473 1 -485 10 -16 11 -17 111 -19 1311 -2 974 -5
1309 -14 1341 -30 107 -172 148 -265 77 -69 -53 -65 46 -62 -1552 l3 -1443 27
-26 c17 -17 42 -29 70 -33 57 -8 1193 -5 1333 3 117 7 163 11 235 22 25 3 52
7 60 8 211 29 389 90 530 181 223 144 358 364 426 695 40 195 42 215 51 375
10 169 9 1146 0 1250 -54 584 -266 926 -672 1081 -127 48 -310 95 -434 109
-121 15 -204 17 -861 21 -669 5 -686 5 -716 -14z"/>
<path d="M6850 4351 c0 -6 4 -13 10 -16 6 -3 7 1 4 9 -7 18 -14 21 -14 7z"/>
<path d="M6891 4194 c0 -11 3 -14 6 -6 3 7 2 16 -1 19 -3 4 -6 -2 -5 -13z"/>
<path d="M6871 2704 c0 -11 3 -14 6 -6 3 7 2 16 -1 19 -3 4 -6 -2 -5 -13z"/>
<path d="M6856 2654 c-4 -14 -5 -28 -3 -31 3 -2 8 8 11 23 4 14 5 28 3 31 -3
2 -8 -8 -11 -23z"/>
<path d="M6841 2594 c0 -11 3 -14 6 -6 3 7 2 16 -1 19 -3 4 -6 -2 -5 -13z"/>
</g>
</svg>
