<?xml version="1.0" encoding="utf-8"?>
<!-- Generator: Adobe Illustrator 26.1.0, SVG Export Plug-In . SVG Version: 6.00 Build 0)  -->
<svg version="1.1" id="Layer_1" xmlns="http://www.w3.org/2000/svg" xmlns:xlink="http://www.w3.org/1999/xlink" x="0px" y="0px"
	 viewBox="0 0 1920 1080" style="enable-background:new 0 0 1920 1080;" xml:space="preserve">
<style type="text/css">
	.st0{display:none;fill:none;}
	.st1{display:none;fill:#0F172A;}
	.st2{fill:#10B981;}
	.st3{fill:url(#SVGID_1_);}
	.st4{fill:none;}
</style>
<path class="st0" d="M571.64,140.48v752.41h778.75V140.48H571.64z M958.97,882.39c-202.23,0-366.17-163.97-366.17-366.2
	s163.94-366.2,366.17-366.2c199.03,0,360.98,158.81,366.06,356.6v0.12l0.02,18.37C1320.34,723.19,1158.24,882.39,958.97,882.39z"/>
<path class="st1" d="M1325.05,525.08c-4.71,198.11-166.81,357.31-366.08,357.31c-202.23,0-366.17-163.97-366.17-366.2
	s163.94-366.2,366.17-366.2c199.03,0,360.98,158.81,366.06,356.6v0.12L1325.05,525.08z"/>
<path class="st2" d="M1325.05,525.08c-4.71,198.11-166.81,357.31-366.08,357.31c-202.23,0-366.17-163.97-366.17-366.2
	s163.94-366.2,366.17-366.2c199.03,0,360.98,158.81,366.06,356.6c-5.08-185.09-156.74-333.55-343.01-333.55
	c-189.52,0-343.17,153.62-343.17,343.15S792.5,859.34,982.02,859.34C1168.53,859.34,1320.34,710.49,1325.05,525.08z"/>
<linearGradient id="SVGID_1_" gradientUnits="userSpaceOnUse" x1="832.1033" y1="391.993" x2="1084.5759" y2="535.4955">
	<stop  offset="0" style="stop-color:#0F172A"/>
	<stop  offset="0.0696" style="stop-color:#0F202F"/>
	<stop  offset="0.1825" style="stop-color:#0F383B"/>
	<stop  offset="0.3246" style="stop-color:#0F5F50"/>
	<stop  offset="0.4886" style="stop-color:#10956D"/>
	<stop  offset="0.567" style="stop-color:#10B17C"/>
	<stop  offset="1" style="stop-color:#10B981"/>
</linearGradient>
<path class="st3" d="M1121.19,585.92c-0.62,17.97-4.37,36.14-8.98,53.64c-7.68,29.18-23.8,49.92-46.79,62.92l-28.29-26.12
	c20.88-9.49,35.16-26.71,41.97-51.11c3.3-11.87,6.16-24.27,6.54-36.5c0.98-30.16,1.46-60.36,1.31-90.55
	c-0.03-6.6-0.09-13.24-0.18-19.84c-0.21-15.14-2.5-30.55-5.98-45.34c-4.46-19.01-12.7-35.28-25.88-47.48
	c-10.08-9.31-20.17-13.57-26.65-16.24c-8.66-3.57-18-6.07-52.33-8.27c-20.62-1.31-15.05-0.3-55.75-1.99c0,0-17.05-0.71-43.02-0.09
	h-39.92c-3.06,0-5.53-2.47-5.53-5.53v-13.59c0-5.06,1.04-8.63,3.36-10.95c0.12-0.12,0.27-0.24,0.39-0.36
	c0.54-0.48,1.07-0.89,1.67-1.22c2.2-1.25,5.18-1.84,8.95-1.84c11.22,0.18,22.46,0.12,33.7-0.06c1.7-0.03-0.18-0.03,20.08,0.03
	c35.79,0.06,53.67,0.09,68.3,0.6c18.74,0.65,28.11,0.98,36.65,2.05c0,0,41.68,5.3,66.9,22.58c0.57,0.39,1.13,0.8,1.7,1.19
	c0.92,0.65,1.84,1.34,2.77,2.05c24.81,19.1,35.91,45.81,41.41,75.38c2.17,11.75,3.96,23.77,4.08,35.7
	c0.15,13.12,0.3,26.27,0.36,39.39C1122.24,531.54,1122.15,558.76,1121.19,585.92z"/>
<path class="st2" d="M1065.42,702.47c-10.62,6.01-22.7,10.35-36.08,13.15c-17.91,3.75-36.41,5.83-54.71,6.22
	c-42.6,0.89-85.23,0.33-127.83,0.3c-11.1,0-15.05-3.9-15.05-14.93c-0.03-98.11-0.06-196.25-0.03-294.36
	c0-9.94,8.03-17.97,17.97-17.97c9.94,0,18,8.03,18,17.97v270.14c0,2.97,2.35,5.53,5.33,5.53c0.03,0,0.03,0,0.06,0
	c30.82,0.03,61.67,0.65,92.46-0.24c17.46-0.51,35.13-2.11,52.24-5.68c6.96-1.46,13.42-3.54,19.37-6.25L1065.42,702.47z"/>
<line class="st4" x1="1189.65" y1="516.19" x2="1122.03" y2="504.35"/>
<line class="st4" x1="1086.95" y1="498.19" x2="1010" y2="484.72"/>
<line class="st4" x1="1086.95" y1="722.35" x2="1065.42" y2="702.47"/>
<line class="st4" x1="1037.13" y1="676.35" x2="1019.99" y2="660.53"/>
<line class="st4" x1="1325.05" y1="525.72" x2="1325.05" y2="525.08"/>
</svg>
