<?xml version="1.0" encoding="utf-8"?>
<!-- Generator: Adobe Illustrator 26.1.0, SVG Export Plug-In . SVG Version: 6.00 Build 0)  -->
<svg version="1.1" id="Layer_1" xmlns="http://www.w3.org/2000/svg" xmlns:xlink="http://www.w3.org/1999/xlink" x="0px" y="0px"
	 viewBox="0 0 740 740" style="enable-background:new 0 0 740 740;" xml:space="preserve">
<style type="text/css">
	.st0{fill:#10B981;}
	.st1{fill:none;}
	.st2{fill:url(#SVGID_1_);}
</style>
<path class="st0" d="M736.52,379.35c-4.71,198.11-166.81,357.31-366.08,357.31c-202.23,0-366.17-163.97-366.17-366.2
	S168.21,4.26,370.44,4.26c199.03,0,360.98,158.81,366.06,356.6C731.42,175.77,579.76,27.31,393.49,27.31
	c-189.52,0-343.17,153.62-343.17,343.15s153.65,343.15,343.17,343.15C580,713.61,731.81,564.76,736.52,379.35z"/>
<path class="st1" d="M316.45,179.7l-19.68,33.36c-2.6,0.03-5.31,0.08-8.13,0.15h-39.92c-3.06,0-5.53-2.46-5.53-5.53v-13.59
	c0-5.06,1.04-8.63,3.36-10.95c0.12-0.12,0.27-0.24,0.39-0.36c0.53-0.47,1.07-0.89,1.66-1.22c2.2-1.25,5.18-1.84,8.96-1.84
	c11.21,0.18,22.46,0.12,33.7-0.06c1.7-0.03-0.18-0.03,20.08,0.03C313.09,179.69,314.79,179.7,316.45,179.7z"/>
<linearGradient id="SVGID_1_" gradientUnits="userSpaceOnUse" x1="290.9677" y1="273.2016" x2="506.2274" y2="395.5527">
	<stop  offset="0" style="stop-color:#0F172A"/>
	<stop  offset="0.1091" style="stop-color:#0F1B2C"/>
	<stop  offset="0.2276" style="stop-color:#0F2833"/>
	<stop  offset="0.3507" style="stop-color:#0F3E3F"/>
	<stop  offset="0.4768" style="stop-color:#0F5D4F"/>
	<stop  offset="0.6039" style="stop-color:#108364"/>
	<stop  offset="0.7291" style="stop-color:#10B17C"/>
	<stop  offset="1" style="stop-color:#10B981"/>
</linearGradient>
<path class="st2" d="M532.67,440.19c-0.63,17.97-4.38,36.15-8.99,53.64c-7.67,29.18-23.79,49.92-46.79,62.92l-28.29-26.12
	c20.88-9.49,35.16-26.72,41.97-51.11c3.31-11.87,6.16-24.27,6.55-36.5c0.98-30.16,1.46-60.36,1.31-90.55
	c-0.03-6.61-0.09-13.24-0.18-19.85c-0.21-15.14-2.5-30.55-5.98-45.33c-4.46-19.01-12.7-35.28-25.88-47.48
	c-10.09-9.31-20.17-13.57-26.66-16.24c-8.65-3.57-17.99-6.07-52.32-8.27c-20.62-1.31-15.06-0.3-55.75-2c0,0-13.55-0.56-34.89-0.24
	l19.68-33.36c32.42,0.05,49.27,0.1,63.19,0.58c18.74,0.66,28.12,0.98,36.65,2.06c0,0,41.68,5.29,66.91,22.57
	c0.56,0.39,1.13,0.81,1.69,1.19c0.92,0.66,1.85,1.34,2.77,2.06c24.81,19.1,35.91,45.81,41.41,75.38c2.17,11.75,3.95,23.77,4.07,35.7
	c0.15,13.12,0.3,26.26,0.36,39.38C533.71,385.81,533.62,413.03,532.67,440.19z"/>
<path class="st0" d="M476.89,556.75c-10.62,6.01-22.7,10.35-36.08,13.15c-17.91,3.75-36.41,5.83-54.71,6.22
	c-42.6,0.89-85.23,0.33-127.83,0.3c-11.1,0-15.05-3.9-15.05-14.93c-0.03-98.11-0.06-196.25-0.03-294.36
	c0-9.94,8.03-17.97,17.97-17.97c9.94,0,18,8.03,18,17.97v270.14c0,2.97,2.35,5.53,5.33,5.53c0.03,0,0.03,0,0.06,0
	c30.82,0.03,61.67,0.65,92.46-0.24c17.46-0.51,35.13-2.11,52.24-5.68c6.96-1.46,13.42-3.54,19.37-6.25L476.89,556.75z"/>
<line class="st1" x1="601.12" y1="370.46" x2="533.5" y2="358.62"/>
<line class="st1" x1="498.43" y1="352.47" x2="421.47" y2="338.99"/>
<line class="st1" x1="498.43" y1="576.62" x2="476.89" y2="556.75"/>
<line class="st1" x1="448.6" y1="530.63" x2="431.46" y2="514.8"/>
<line class="st1" x1="736.52" y1="379.99" x2="736.52" y2="379.35"/>
<line class="st1" x1="296.77" y1="213.06" x2="286.87" y2="229.84"/>
<line class="st1" x1="319.9" y1="173.84" x2="316.45" y2="179.7"/>
</svg>
