<?xml version="1.0" encoding="utf-8"?>
<!-- Generator: Adobe Illustrator 26.1.0, SVG Export Plug-In . SVG Version: 6.00 Build 0)  -->
<svg version="1.1" id="Layer_1" xmlns="http://www.w3.org/2000/svg" xmlns:xlink="http://www.w3.org/1999/xlink" x="0px" y="0px"
	 viewBox="0 0 740 740" style="enable-background:new 0 0 740 740;" xml:space="preserve">
<style type="text/css">
	.st0{fill:#10B981;}
	.st1{fill:url(#SVGID_1_);}
	.st2{fill:none;}
</style>
<path class="st0" d="M736.52,379.35c-4.71,198.11-166.81,357.31-366.08,357.31c-202.23,0-366.17-163.97-366.17-366.2
	S168.21,4.26,370.44,4.26c199.03,0,360.98,158.81,366.06,356.6C731.42,175.77,579.76,27.31,393.49,27.31
	c-189.52,0-343.17,153.62-343.17,343.15s153.65,343.15,343.17,343.15C580,713.61,731.81,564.76,736.52,379.35z"/>
<linearGradient id="SVGID_1_" gradientUnits="userSpaceOnUse" x1="243.5766" y1="246.2664" x2="496.0492" y2="389.7689">
	<stop  offset="0" style="stop-color:#0F172A"/>
	<stop  offset="0.0696" style="stop-color:#0F202F"/>
	<stop  offset="0.1825" style="stop-color:#0F383B"/>
	<stop  offset="0.3246" style="stop-color:#0F5F50"/>
	<stop  offset="0.4886" style="stop-color:#10956D"/>
	<stop  offset="0.567" style="stop-color:#10B17C"/>
	<stop  offset="1" style="stop-color:#10B981"/>
</linearGradient>
<path class="st1" d="M532.67,440.19c-0.62,17.97-4.37,36.14-8.98,53.64c-7.68,29.18-23.8,49.92-46.79,62.92l-28.29-26.12
	c20.88-9.49,35.16-26.71,41.97-51.11c3.3-11.87,6.16-24.27,6.54-36.5c0.98-30.16,1.46-60.36,1.31-90.55
	c-0.03-6.6-0.09-13.24-0.18-19.84c-0.21-15.14-2.5-30.55-5.98-45.34c-4.46-19.01-12.7-35.28-25.88-47.48
	c-10.08-9.31-20.17-13.57-26.65-16.24c-8.66-3.57-18-6.07-52.33-8.27c-20.62-1.31-15.05-0.3-55.75-1.99c0,0-17.05-0.71-43.02-0.09
	h-39.92c-3.06,0-5.53-2.47-5.53-5.53v-13.59c0-5.06,1.04-8.63,3.36-10.95c0.12-0.12,0.27-0.24,0.39-0.36
	c0.54-0.48,1.07-0.89,1.67-1.22c2.2-1.25,5.18-1.84,8.95-1.84c11.22,0.18,22.46,0.12,33.7-0.06c1.7-0.03-0.18-0.03,20.08,0.03
	c35.79,0.06,53.67,0.09,68.3,0.6c18.74,0.65,28.11,0.98,36.65,2.05c0,0,41.68,5.3,66.9,22.58c0.57,0.39,1.13,0.8,1.7,1.19
	c0.92,0.65,1.84,1.34,2.77,2.05c24.81,19.1,35.91,45.81,41.41,75.38c2.17,11.75,3.96,23.77,4.08,35.7
	c0.15,13.12,0.3,26.27,0.36,39.39C533.71,385.81,533.62,413.03,532.67,440.19z"/>
<path class="st0" d="M476.89,556.75c-10.62,6.01-22.7,10.35-36.08,13.15c-17.91,3.75-36.41,5.83-54.71,6.22
	c-42.6,0.89-85.23,0.33-127.83,0.3c-11.1,0-15.05-3.9-15.05-14.93c-0.03-98.11-0.06-196.25-0.03-294.36
	c0-9.94,8.03-17.97,17.97-17.97c9.94,0,18,8.03,18,17.97v270.14c0,2.97,2.35,5.53,5.33,5.53c0.03,0,0.03,0,0.06,0
	c30.82,0.03,61.67,0.65,92.46-0.24c17.46-0.51,35.13-2.11,52.24-5.68c6.96-1.46,13.42-3.54,19.37-6.25L476.89,556.75z"/>
<line class="st2" x1="601.12" y1="370.46" x2="533.5" y2="358.62"/>
<line class="st2" x1="498.43" y1="352.47" x2="421.47" y2="338.99"/>
<line class="st2" x1="498.43" y1="576.62" x2="476.89" y2="556.75"/>
<line class="st2" x1="448.6" y1="530.63" x2="431.46" y2="514.8"/>
<line class="st2" x1="736.52" y1="379.99" x2="736.52" y2="379.35"/>
</svg>
