<?xml version="1.0" encoding="utf-8"?>
<!-- Generator: Adobe Illustrator 26.1.0, SVG Export Plug-In . SVG Version: 6.00 Build 0)  -->
<svg version="1.1" id="Layer_1" xmlns="http://www.w3.org/2000/svg" xmlns:xlink="http://www.w3.org/1999/xlink" x="0px" y="0px"
	 viewBox="0 0 740 740" style="enable-background:new 0 0 740 740;" xml:space="preserve">
<style type="text/css">
	.st0{fill:#10B981;}
	.st1{fill:url(#SVGID_1_);}
	.st2{fill:none;}
</style>
<path class="st0" d="M736.52,379.35c-4.71,198.11-166.81,357.31-366.08,357.31c-202.23,0-366.17-163.97-366.17-366.2
	S168.21,4.26,370.44,4.26c199.03,0,360.98,158.81,366.06,356.6C731.42,175.77,579.76,27.31,393.49,27.31
	c-189.52,0-343.17,153.62-343.17,343.15s153.65,343.15,343.17,343.15C580,713.61,731.81,564.76,736.52,379.35z"/>
<linearGradient id="SVGID_1_" gradientUnits="userSpaceOnUse" x1="249.972" y1="249.9001" x2="497.4233" y2="390.5486">
	<stop  offset="0" style="stop-color:#0F172A"/>
	<stop  offset="0.1091" style="stop-color:#0F1B2C"/>
	<stop  offset="0.2276" style="stop-color:#0F2833"/>
	<stop  offset="0.3507" style="stop-color:#0F3E3F"/>
	<stop  offset="0.4768" style="stop-color:#0F5D4F"/>
	<stop  offset="0.6039" style="stop-color:#108364"/>
	<stop  offset="0.7291" style="stop-color:#10B17C"/>
	<stop  offset="1" style="stop-color:#10B981"/>
</linearGradient>
<path class="st1" d="M532.67,440.19c-0.63,17.97-4.38,36.15-8.99,53.64c-7.67,29.18-23.79,49.92-46.79,62.92l-28.29-26.12
	c20.88-9.49,35.16-26.72,41.97-51.11c3.31-11.87,6.16-24.27,6.55-36.5c0.98-30.16,1.46-60.36,1.31-90.55
	c-0.03-6.61-0.09-13.24-0.18-19.85c-0.21-15.14-2.5-30.55-5.98-45.33c-4.46-19.01-12.7-35.28-25.88-47.48
	c-10.09-9.31-20.17-13.57-26.66-16.24c-8.65-3.57-17.99-6.07-52.32-8.27c-20.62-1.31-15.06-0.3-55.75-2c0,0-17.05-0.71-43.02-0.09
	h-29.58v-0.5h0.68v-0.87h-1.55v-0.44h1.46v-0.87h-0.97v-0.87h2.61v-0.87h-2.04v-0.44h0.98v-1.3h-3.68v-0.44h2.13v-0.87h0.58v-0.77
	h2.03v-0.87h-1.84v-0.68h1.16v-0.87h-1.93v-0.68h0.58V201h-1.07v-0.68h0.87v-0.77h1.17v-0.87h-0.49V198h0.49v-0.87h-0.78v-0.53h2.52
	v-0.87h-1.45v-0.25h0.77v-0.87h-1.64v-0.87h0.96v-0.87h-2.42v-0.29h1.46V192h0.96v-0.87h-3.38v-0.44h2.8v-0.87h-1.16v-0.87h0.38
	v-0.72h1.36v-0.88h-2.42v-0.43h0.68v-0.87h3.1v-0.87h-3.78v-0.44h-1.64v-0.29h0.68v-0.87h0.96v-0.87h-0.96v-0.39h2.8v-0.87h-1.84
	v-0.39h1.07v-0.87h-2.03v-0.46c0.11-0.01,0.22-0.01,0.33-0.01c11.21,0.18,22.46,0.12,33.7-0.06c1.7-0.03-0.18-0.03,20.08,0.03
	c35.79,0.06,53.67,0.09,68.3,0.59c18.74,0.66,28.12,0.98,36.65,2.06c0,0,41.68,5.29,66.91,22.57c0.56,0.39,1.13,0.81,1.69,1.19
	c0.92,0.66,1.85,1.34,2.77,2.06c24.81,19.1,35.91,45.81,41.41,75.38c2.17,11.75,3.95,23.77,4.07,35.7
	c0.15,13.12,0.3,26.26,0.36,39.38C533.71,385.81,533.62,413.03,532.67,440.19z"/>
<path class="st0" d="M476.89,556.75c-10.62,6.01-22.7,10.35-36.08,13.15c-17.91,3.75-36.41,5.83-54.71,6.22
	c-42.6,0.89-85.23,0.33-127.83,0.3c-11.1,0-15.05-3.9-15.05-14.93c-0.03-98.11-0.06-196.25-0.03-294.36
	c0-9.94,8.03-17.97,17.97-17.97c9.94,0,18,8.03,18,17.97v270.14c0,2.97,2.35,5.53,5.33,5.53c0.03,0,0.03,0,0.06,0
	c30.82,0.03,61.67,0.65,92.46-0.24c17.46-0.51,35.13-2.11,52.24-5.68c6.96-1.46,13.42-3.54,19.37-6.25L476.89,556.75z"/>
<line class="st2" x1="601.12" y1="370.46" x2="533.5" y2="358.62"/>
<line class="st2" x1="498.43" y1="352.47" x2="421.47" y2="338.99"/>
<line class="st2" x1="498.43" y1="576.62" x2="476.89" y2="556.75"/>
<line class="st2" x1="448.6" y1="530.63" x2="431.46" y2="514.8"/>
<line class="st2" x1="736.52" y1="379.99" x2="736.52" y2="379.35"/>
</svg>
